<svg width="65" height="65" viewBox="0 0 65 65" fill="none" xmlns="http://www.w3.org/2000/svg">
<path d="M56.4481 29.9667L34.7148 8.23333C34.0481 7.56666 33.1148 7.16666 32.1815 7.16666C31.2481 7.16666 30.3148 7.56666 29.6481 8.23333L24.9815 12.9L30.4481 18.3667C30.9815 18.1 31.5148 17.9667 32.1815 17.9667C34.4481 17.9667 36.1815 19.7 36.1815 21.9667C36.1815 22.6333 36.0481 23.1667 35.7815 23.7L41.1148 29.0333C41.6481 28.7667 42.1815 28.6333 42.8481 28.6333C45.1148 28.6333 46.8481 30.3667 46.8481 32.6333C46.8481 34.9 45.1148 36.6333 42.8481 36.6333C40.5815 36.6333 38.8481 34.9 38.8481 32.6333C38.8481 31.9667 38.9815 31.4333 39.2481 30.9L33.9148 25.5667C33.7815 25.5667 33.6481 25.7 33.5148 25.7V39.5667C35.1148 40.1 36.1815 41.5667 36.1815 43.3C36.1815 45.5667 34.4481 47.3 32.1815 47.3C29.9148 47.3 28.1815 45.5667 28.1815 43.3C28.1815 41.5667 29.2481 40.1 30.8481 39.5667V25.5667C29.2481 25.0333 28.1815 23.5667 28.1815 21.8333C28.1815 21.1667 28.3148 20.6333 28.5815 20.1L23.1148 14.6333L7.91481 29.9667C7.24814 30.6333 6.84814 31.5667 6.84814 32.5C6.84814 33.4333 7.24814 34.3667 7.91481 35.0333L29.6481 56.7667C30.3148 57.4333 31.2481 57.8333 32.1815 57.8333C33.1148 57.8333 34.0481 57.4333 34.7148 56.7667L56.4481 35.0333C57.1148 34.3667 57.5148 33.4333 57.5148 32.5C57.5148 31.5667 57.1148 30.6333 56.4481 29.9667Z" fill="#F4511E"/>
</svg>
