<svg width="65" height="65" viewBox="0 0 65 65" fill="none" xmlns="http://www.w3.org/2000/svg">
<g clip-path="url(#clip0_412_1299)">
<mask id="mask0_412_1299" style="mask-type:alpha" maskUnits="userSpaceOnUse" x="0" y="0" width="65" height="65">
<path d="M32.2046 64.5C49.8777 64.5 64.2046 50.1731 64.2046 32.5C64.2046 14.8269 49.8777 0.5 32.2046 0.5C14.5315 0.5 0.20459 14.8269 0.20459 32.5C0.20459 50.1731 14.5315 64.5 32.2046 64.5Z" fill="black"/>
</mask>
<g mask="url(#mask0_412_1299)">
<path d="M32.2048 63.4333C49.2888 63.4333 63.1382 49.584 63.1382 32.5C63.1382 15.416 49.2888 1.56667 32.2048 1.56667C15.1208 1.56667 1.27148 15.416 1.27148 32.5C1.27148 49.584 15.1208 63.4333 32.2048 63.4333Z" fill="black" stroke="white" stroke-width="6"/>
<path d="M53.3632 56.5071L24.7886 19.7H19.4048V45.2893H23.7118V25.1697L49.9822 59.1116C51.1676 58.3183 52.2969 57.4476 53.3632 56.5071Z" fill="url(#paint0_linear_412_1299)"/>
<path d="M45.3604 19.7H41.0938V45.3H45.3604V19.7Z" fill="url(#paint1_linear_412_1299)"/>
</g>
</g>
<defs>
<linearGradient id="paint0_linear_412_1299" x1="38.9603" y1="41.9222" x2="51.5826" y2="57.5667" gradientUnits="userSpaceOnUse">
<stop stop-color="white"/>
<stop offset="1" stop-color="white" stop-opacity="0"/>
</linearGradient>
<linearGradient id="paint1_linear_412_1299" x1="43.2271" y1="19.7" x2="43.1556" y2="38.5" gradientUnits="userSpaceOnUse">
<stop stop-color="white"/>
<stop offset="1" stop-color="white" stop-opacity="0"/>
</linearGradient>
<clipPath id="clip0_412_1299">
<rect width="64" height="64" fill="white" transform="translate(0.20459 0.5)"/>
</clipPath>
</defs>
</svg>
