<svg width="64" height="64" viewBox="0 0 57 65" fill="none" xmlns="http://www.w3.org/2000/svg">
<g clip-path="url(#clip0_412_1309)">
<path d="M28.5992 64.5C27.7413 64.5 26.9405 64.2668 26.1969 63.8585L18.5896 59.2517C17.4457 58.6102 18.0176 58.377 18.3608 58.2603C19.9052 57.7355 20.1911 57.6189 21.7927 56.6858C21.9643 56.5692 22.193 56.6275 22.3646 56.7442L28.1988 60.3014C28.4277 60.418 28.7136 60.418 28.8852 60.3014L51.7072 46.8307C51.936 46.714 52.0503 46.4808 52.0503 46.1892V19.306C52.0503 19.0145 51.936 18.7812 51.7072 18.6646L28.8852 5.25222C28.6564 5.13559 28.3704 5.13559 28.1988 5.25222L5.37689 18.6646C5.1481 18.7812 5.0337 19.0728 5.0337 19.306V46.1892C5.0337 46.4224 5.1481 46.714 5.37689 46.8307L11.6115 50.5045C14.9861 52.2539 17.1024 50.2129 17.1024 48.1719V21.6386C17.1024 21.2887 17.3885 20.9389 17.7888 20.9389H20.706C21.0491 20.9389 21.3923 21.2305 21.3923 21.6386V48.1719C21.3923 52.7788 18.9327 55.4613 14.6429 55.4613C13.3274 55.4613 12.2979 55.4613 9.38072 54.0034L3.37496 50.5045C1.88782 49.6297 0.972656 47.9969 0.972656 46.2475V19.3644C0.972656 17.615 1.88782 15.9822 3.37496 15.1074L26.1969 1.63671C27.6269 0.820301 29.5716 0.820301 31.0016 1.63671L53.8235 15.1074C55.3106 15.9822 56.2258 17.615 56.2258 19.3644V46.2475C56.2258 47.9969 55.3106 49.6297 53.8235 50.5045L31.0016 63.9752C30.3152 64.2668 29.4572 64.5 28.5992 64.5Z" fill="#5FA04E"/>
<path d="M35.6918 46.0142C25.6821 46.0142 23.623 41.349 23.623 37.3836C23.623 37.0338 23.909 36.6839 24.3094 36.6839H27.2837C27.6268 36.6839 27.9129 36.9171 27.9129 37.267C28.3704 40.3577 29.686 41.8739 35.749 41.8739C40.5536 41.8739 42.6127 40.7659 42.6127 38.1417C42.6127 36.6256 42.0407 35.5176 34.5478 34.7594C28.3132 34.118 24.4238 32.7185 24.4238 27.6451C24.4238 22.9215 28.3132 20.1225 34.8338 20.1225C42.1551 20.1225 45.7586 22.6883 46.2162 28.2865C46.2162 28.4615 46.159 28.6364 46.0446 28.8114C45.9302 28.928 45.7586 29.0446 45.587 29.0446H42.5555C42.2695 29.0446 41.9835 28.8114 41.9263 28.5198C41.2399 25.3125 39.4668 24.2628 34.7766 24.2628C29.5144 24.2628 28.8852 26.1289 28.8852 27.5284C28.8852 29.2196 29.6288 29.7444 36.7213 30.6775C43.7567 31.6105 47.0741 32.9517 47.0741 37.9668C47.0741 43.0985 42.8987 46.0142 35.6918 46.0142Z" fill="#5FA04E"/>
</g>
<defs>
<clipPath id="clip0_412_1309">
<rect width="64" height="64" fill="white" transform="translate(0.339844 0.5)"/>
</clipPath>
</defs>
</svg>
