<svg width="64" height="64" viewBox="0 0 71 65" fill="none" xmlns="http://www.w3.org/2000/svg">
<g clip-path="url(#clip0_412_1291)">
<path d="M35.4999 39.2725C39.1723 39.2725 42.1493 36.2403 42.1493 32.5C42.1493 28.7597 39.1723 25.7275 35.4999 25.7275C31.8276 25.7275 28.8506 28.7597 28.8506 32.5C28.8506 36.2403 31.8276 39.2725 35.4999 39.2725Z" fill="#087EA4"/>
<path d="M35.4999 47.7381C53.8616 47.7381 68.7467 40.9158 68.7467 32.5C68.7467 24.0842 53.8616 17.2619 35.4999 17.2619C17.1383 17.2619 2.25317 24.0842 2.25317 32.5C2.25317 40.9158 17.1383 47.7381 35.4999 47.7381Z" stroke="#087EA4" stroke-width="3"/>
<path d="M22.5433 40.119C31.7242 56.3152 44.9676 66.0336 52.1234 61.8257C59.2791 57.6178 57.6375 41.0771 48.4566 24.8809C39.2758 8.6848 26.0324 -1.03361 18.8766 3.17427C11.7209 7.38215 13.3625 23.9229 22.5433 40.119Z" stroke="#087EA4" stroke-width="3"/>
<path d="M22.5434 24.8809C13.3626 41.0771 11.7209 57.6178 18.8767 61.8257C26.0324 66.0336 39.2759 56.3152 48.4567 40.119C57.6375 23.9229 59.2792 7.38216 52.1234 3.17427C44.9677 -1.03361 31.7243 8.6848 22.5434 24.8809Z" stroke="#087EA4" stroke-width="3"/>
</g>
<defs>
<clipPath id="clip0_412_1291">
<rect width="69.8182" height="64" fill="white" transform="translate(0.59082 0.5)"/>
</clipPath>
</defs>
</svg>
