<svg width="65" height="65" viewBox="0 0 65 65" fill="none" xmlns="http://www.w3.org/2000/svg">
<path fill-rule="evenodd" clip-rule="evenodd" d="M12.1265 56.104L10.3905 9.876C10.3358 8.34933 11.5092 7.05733 13.0332 6.964L43.8438 5.03733L46.1972 5.83333L49.2572 4.69867L52.3452 4.50533C53.8958 4.40667 55.2332 5.584 55.3332 7.13467C55.3372 7.19467 55.3385 7.256 55.3385 7.31733V57.6867C55.3372 59.2427 54.0745 60.5027 52.5185 60.5013C52.4772 60.5013 52.4358 60.5 52.3958 60.4987L14.8145 58.8107C13.3505 58.7453 12.1825 57.5693 12.1265 56.104Z" fill="#FF4081"/>
<path fill-rule="evenodd" clip-rule="evenodd" d="M49.2545 4.69867L43.8451 5.03467L43.5825 11.3827C43.5731 11.6147 43.7531 11.8093 43.9851 11.82C44.0825 11.824 44.1771 11.7947 44.2545 11.736L46.7185 9.86534L48.8011 11.5067C48.9825 11.6507 49.2478 11.62 49.3905 11.4387C49.4518 11.36 49.4838 11.2627 49.4811 11.1627L49.2571 4.7L49.2545 4.69867ZM45.0438 25.9507C44.0558 26.72 36.6745 27.244 36.6745 26.1493C36.8318 21.9693 34.9611 21.7867 33.9198 21.7867C32.9345 21.7867 31.2705 22.084 31.2705 24.324C31.2705 26.6053 33.7011 27.8933 36.5545 29.4053C40.6065 31.5533 45.5145 34.1547 45.5145 40.6947C45.5145 46.9667 40.4185 50.428 33.9225 50.428C27.2171 50.428 21.3558 47.7147 22.0171 38.3093C22.2771 37.2067 30.8038 37.4693 30.8038 38.3093C30.6971 42.1907 31.5825 43.332 33.8171 43.332C35.5331 43.332 36.3118 42.3853 36.3118 40.7947C36.3118 38.384 33.7811 36.9613 30.8665 35.3267C26.9211 33.112 22.2785 30.5053 22.2785 24.5213C22.2785 18.552 26.3838 14.5707 33.7131 14.5707C41.0425 14.5707 45.0438 18.492 45.0438 25.9507Z" fill="white"/>
</svg>
