<svg width="65" height="65" viewBox="0 0 65 65" fill="none" xmlns="http://www.w3.org/2000/svg">
<g clip-path="url(#clip0_412_1286)">
<path d="M61.7954 0.5H3.79541C2.13856 0.5 0.79541 1.84315 0.79541 3.5V61.5C0.79541 63.1569 2.13856 64.5 3.79541 64.5H61.7954C63.4523 64.5 64.7954 63.1569 64.7954 61.5V3.5C64.7954 1.84315 63.4523 0.5 61.7954 0.5Z" fill="#3178C6"/>
<path fill-rule="evenodd" clip-rule="evenodd" d="M37.9265 50.234V57.247C39.0627 57.831 40.4064 58.2695 41.9578 58.5615C43.5091 58.854 45.1442 59 46.863 59C48.5382 59 50.1295 58.8395 51.6369 58.518C53.1449 58.1965 54.4664 57.667 55.6029 56.929C56.7389 56.191 57.6384 55.227 58.3014 54.036C58.9639 52.8455 59.2954 51.3735 59.2954 49.6203C59.2954 48.3493 59.1059 47.2353 58.7274 46.2783C58.3484 45.3214 57.8024 44.4704 57.0884 43.7252C56.3749 42.9801 55.5189 42.3117 54.5214 41.72C53.5234 41.1283 52.3984 40.5694 51.1454 40.0435C50.2278 39.6636 49.4048 39.2947 48.6765 38.9368C47.9482 38.5788 47.3291 38.2136 46.8193 37.841C46.3095 37.4684 45.9162 37.074 45.6394 36.6576C45.3627 36.2413 45.2243 35.77 45.2243 35.2441C45.2243 34.7619 45.3481 34.3273 45.5957 33.9402C45.8434 33.553 46.193 33.2206 46.6445 32.943C47.0961 32.6655 47.6496 32.45 48.3051 32.2966C48.9606 32.1431 49.6889 32.0664 50.49 32.0664C51.0729 32.0664 51.6879 32.1103 52.3364 32.1979C52.9844 32.2856 53.6364 32.4207 54.2919 32.6034C54.9474 32.786 55.5844 33.0161 56.2039 33.2937C56.8229 33.5713 57.3944 33.8927 57.9189 34.2579V27.7054C56.8554 27.2963 55.6939 26.9931 54.4339 26.7959C53.1739 26.5986 51.7284 26.5 50.0967 26.5C48.4362 26.5 46.863 26.6789 45.3772 27.0369C43.8915 27.3948 42.5841 27.9537 41.4552 28.7134C40.3263 29.4731 39.4341 30.441 38.7787 31.6171C38.1232 32.7932 37.7954 34.1995 37.7954 35.8358C37.7954 37.9251 38.3963 39.7074 39.598 41.183C40.7998 42.6587 42.6242 43.9079 45.0713 44.9305C46.0327 45.325 46.9286 45.7122 47.7588 46.092C48.5891 46.4719 49.3065 46.8664 49.911 47.2755C50.5155 47.6846 50.9924 48.1302 51.3419 48.6123C51.6919 49.0944 51.8664 49.6423 51.8664 50.2559C51.8664 50.709 51.7574 51.129 51.5389 51.516C51.3204 51.903 50.9889 52.239 50.5447 52.524C50.1004 52.809 49.5469 53.032 48.8841 53.1925C48.2213 53.353 47.4457 53.4335 46.5571 53.4335C45.0422 53.4335 43.5419 53.167 42.0561 52.6335C40.5703 52.1005 39.1938 51.3005 37.9265 50.234ZM26.1467 32.7772H35.2954V27H9.79541V32.7772H18.8994V58.5H26.1467V32.7772Z" fill="white"/>
</g>
<defs>
<clipPath id="clip0_412_1286">
<rect width="64" height="64" fill="white" transform="translate(0.79541 0.5)"/>
</clipPath>
</defs>
</svg>
